<?xml version="1.0" encoding="utf-8"?>
<!-- Generator: Adobe Illustrator 23.0.1, SVG Export Plug-In . SVG Version: 6.00 Build 0)  -->
<svg xmlns="http://www.w3.org/2000/svg" xmlns:xlink="http://www.w3.org/1999/xlink" version="1.1" id="Delivery" x="0px" y="0px" viewBox="0 0 1000 1000" style="enable-background:new 0 0 1000 1000;" xml:space="preserve" width="512" height="512">
<style type="text/css">
	.st0{fill:rgb(0,0,0);}
</style>
<g>
	<path class="st0" d="M850.8,597.3L850.8,597.3L850.8,597.3C850.8,597.3,850.8,597.3,850.8,597.3   C850.8,597.3,850.8,597.3,850.8,597.3l-42.6-25.2l-5-5l-74.4-77.5c0,0,0,0,0,0c0,0,0,0,0,0v0l0,0c-5.9-6.1-14.2-9.7-22.8-9.7h-52.8   v-78.1v0v0c0-25.5-20.8-46.2-46.2-46.2h-58.1c0.1-1.9,0.1-3.8,0.1-5.7c0-33.4-14.5-63.4-37.5-84.2l8.1-12.3   c5.2-7.8,3-18.4-4.8-23.6c-7.8-5.2-18.4-3-23.6,4.8l-8.1,12.2c-9.5-4.4-19.8-7.6-30.5-9.2v-20.1h18.1c9.4,0,17-7.6,17-17   c0-9.4-7.6-17-17-17h-70.3c-9.4,0-17,7.6-17,17c0,9.4,7.6,17,17,17h18.1v20.1c-10.8,1.6-21,4.7-30.6,9.2l-8-12.1   c-5.2-7.8-15.7-10-23.6-4.8c-7.8,5.2-10,15.7-4.8,23.6l8,12.1c-23.1,20.8-37.6,50.9-37.6,84.3c0,1.9,0,3.8,0.1,5.7h-57.9   c-25.5,0-46.2,20.7-46.2,46.2v57.2h-45.4c-9.4,0-17,7.6-17,17c0,9.4,7.6,17,17,17h189.7c9.4,0,17-7.6,17-17c0-9.4-7.6-17-17-17   H252.1v-57.2c0-6.8,5.5-12.2,12.2-12.2h64.9c16.1,43,57.7,73.7,106.3,73.7c48.6,0,90.1-30.7,106.3-73.7H607   c6.6,0,12.2,5.6,12.2,12.3v305H430.5c-12.5-21.4-35.8-35.9-62.4-35.9c-26.6,0-49.8,14.4-62.4,35.9h-41.5c-6.8,0-12.2-5.5-12.2-12.2   V627h108.6c9.4,0,17-7.6,17-17c0-9.4-7.6-17-17-17H141.2c-9.4,0-17,7.6-17,17c0,9.4,7.6,17,17,17h76.9v67.6   c0,25.5,20.7,46.2,46.2,46.2h31.7c0,0.8-0.1,1.5-0.1,2.3c0,39.8,32.4,72.2,72.2,72.2c39.8,0,72.2-32.4,72.2-72.2   c0-0.8,0-1.5-0.1-2.3h248.6c1.8,38.2,33.4,68.8,72.1,68.8c38.7,0,70.3-30.6,72.1-68.8c15.1-0.6,28-12,30.1-27.1c0,0,0,0,0,0   l10.1-70.1c0,0,0,0,0,0l0,0C875.9,625.1,867.1,606.9,850.8,597.3z M435.5,429.3c-36.5,0-67.3-24.8-76.6-58.4   c-0.2-1.7-0.6-3.2-1.2-4.7c-1.1-5.3-1.7-10.8-1.7-16.4c0-27.2,13.7-51.2,34.6-65.6c0.4-0.2,0.8-0.5,1.2-0.7   c0.3-0.2,0.6-0.5,0.9-0.7c12.3-7.9,27-12.5,42.7-12.5c43.8,0,79.5,35.7,79.5,79.5C515,393.7,479.3,429.3,435.5,429.3z M368.2,781.3   c-21.1,0-38.2-17.1-38.2-38.2c0-21.1,17.1-38.2,38.2-38.2s38.2,17.1,38.2,38.2C406.4,764.2,389.2,781.3,368.2,781.3z M705.1,513.9   l52.5,54.7H653.2v-54.7H705.1z M653.2,602.7H793l40.5,23.9c0,0,0,0,0,0c0,0,0,0,0,0c4.3,2.5,6.7,7.4,6,12.2l-9.8,68h-3.5   c-11.5-24.5-36.5-41.5-65.3-41.5c-28.8,0-53.8,17-65.3,41.5h-42.4V602.7z M760.9,775.6c-21.1,0-38.2-17.1-38.2-38.2   c0-21.1,17.1-38.2,38.2-38.2c21.1,0,38.2,17.1,38.2,38.2C799.1,758.5,782,775.6,760.9,775.6z"/>
	<path class="st0" d="M368.1,559.4c9.4,0,17-7.6,17-17c0-9.4-7.6-17-17-17H204.1c-9.4,0-17,7.6-17,17c0,9.4,7.6,17,17,17H368.1z"/>
	<path class="st0" d="M435.6,275c-9.4,0-17,7.6-17,17v58c0,9.4,7.6,17,17,17c9.4,0,17-7.6,17-17v-58C452.6,282.6,445,275,435.6,275z   "/>
</g>
</svg>