<svg id="Layer_1" enable-background="new 0 0 256 256" height="512" viewBox="0 0 256 256" width="512" xmlns="http://www.w3.org/2000/svg"><circle cx="128" cy="128" fill="#382b73" r="120"/><circle cx="128" cy="128" fill="#473080" r="102.5"/><path d="m155.179 146.675c-5.122 0-9.951 1.246-14.213 3.438v-70.446c0-3.82-3.097-6.917-6.917-6.917h-50.352c-3.82 0-6.917 3.097-6.917 6.917v110.667c0 3.82 3.097 6.917 6.917 6.917h47.2c5.703 7.11 14.459 11.667 24.282 11.667 17.188 0 31.121-13.933 31.121-31.121s-13.933-31.122-31.121-31.122z" fill="#382b73"/><path d="m197.093 100.929c0-13.764-11.158-24.921-24.921-24.921-13.764 0-24.921 11.158-24.921 24.921 0 7.949 3.722 15.029 9.518 19.593-.143-.113-.285-.227-.426-.343v16.689c0 2.029 2.421 3.081 3.904 1.696l13.687-12.776c12.941-.904 23.159-11.688 23.159-24.859z" fill="#382b73"/><path d="m134.05 190.25h-50.354c-3.82 0-6.917-3.097-6.917-6.917v-110.666c0-3.82 3.097-6.917 6.917-6.917h50.353c3.82 0 6.917 3.097 6.917 6.917v110.667c0 3.819-3.096 6.916-6.916 6.916z" fill="#fede3a"/><path d="m134.05 167.811h-50.354c-3.82 0-6.917-3.097-6.917-6.917v22.439c0 3.82 3.097 6.917 6.917 6.917h50.353c3.82 0 6.917-3.097 6.917-6.917v-22.439c0 3.82-3.096 6.917-6.916 6.917z" fill="#e7ad27"/><g fill="#ef5a9d"><path d="m108.499 85.155h-19.634c-1.549 0-2.805-1.256-2.805-2.805 0-1.549 1.256-2.805 2.805-2.805h19.634c1.549 0 2.805 1.256 2.805 2.805 0 1.549-1.256 2.805-2.805 2.805z"/><path d="m128.882 85.155c-1.549 0-2.805-1.256-2.805-2.805 0-1.549 1.256-2.805 2.805-2.805 1.549 0 2.805 1.256 2.805 2.805-.001 1.549-1.256 2.805-2.805 2.805z"/><path d="m108.499 115.191h-19.634c-1.549 0-2.805-1.256-2.805-2.805 0-1.549 1.256-2.805 2.805-2.805h19.634c1.549 0 2.805 1.256 2.805 2.805 0 1.549-1.256 2.805-2.805 2.805z"/><path d="m128.882 115.191c-1.549 0-2.805-1.256-2.805-2.805 0-1.549 1.256-2.805 2.805-2.805 1.549 0 2.805 1.256 2.805 2.805-.001 1.549-1.256 2.805-2.805 2.805z"/></g><path d="m76.78 95.556h64.187v5.61h-64.187z" fill="#e7ad27"/><path d="m76.78 123.606h64.187v5.61h-64.187z" fill="#e7ad27"/><circle cx="155.179" cy="170.796" fill="#1caee4" r="31.121"/><path d="m166.504 193.54h-21.237c-1.229 0-2.226-.997-2.226-2.226v-13.856c0-1.229.997-2.226 2.226-2.226h21.237c1.229 0 2.226.997 2.226 2.226v13.856c-.001 1.23-.997 2.226-2.226 2.226z" fill="#136da0"/><path d="m165.668 169.448h-3.993v-11.404h-11.58v17.189h-3.993v-18.386c0-1.541 1.254-2.795 2.795-2.795h13.976c1.541 0 2.795 1.254 2.795 2.795z" fill="#136da0"/><path d="m166.504 190.54h-21.237c-1.229 0-2.226-.997-2.226-2.226v-13.856c0-1.229.997-2.226 2.226-2.226h21.237c1.229 0 2.226.997 2.226 2.226v13.856c-.001 1.23-.997 2.226-2.226 2.226z" fill="#f7cb15"/><path d="m161.858 190.54h-11.945c-.951 0-1.723-.771-1.723-1.723v-14.862c0-.951.771-1.723 1.723-1.723h11.945c.951 0 1.723.771 1.723 1.723v14.862c-.001.952-.772 1.723-1.723 1.723z" fill="#fede3a"/><path d="m158.207 178.773c0-1.279-1.037-2.316-2.316-2.316s-2.316 1.037-2.316 2.316c0 .87.48 1.627 1.19 2.023v4.394c0 .622.504 1.126 1.126 1.126s1.126-.504 1.126-1.126v-4.394c.71-.396 1.19-1.153 1.19-2.023z" fill="#e7ad27"/><path d="m165.668 166.448h-3.993v-11.404h-11.58v17.189h-3.993v-18.386c0-1.541 1.254-2.795 2.795-2.795h13.976c1.541 0 2.795 1.254 2.795 2.795z" fill="#fede3a"/><path d="m163.671 166.448v-12.602c0-.441-.358-.799-.799-.799h-13.976c-.441 0-.799.358-.799.799v18.386h1.997v-17.189h11.58v11.404h1.997z" fill="#f7cb15"/><circle cx="172.171" cy="93.929" fill="#ef5a9d" r="24.921"/><path d="m172.172 114.403c-13.014 0-23.699-9.976-24.823-22.698-.065.732-.098 1.474-.098 2.223 0 13.764 11.158 24.921 24.921 24.921 13.764 0 24.921-11.158 24.921-24.921 0-.749-.033-1.491-.098-2.223-1.125 12.722-11.809 22.698-24.823 22.698z" fill="#e43d91"/><path d="m172.172 118.85c-6.011 0-11.524-2.128-15.829-5.671v16.689c0 2.029 2.421 3.081 3.904 1.696l13.688-12.776c-.583.041-1.171.062-1.763.062z" fill="#ef5a9d"/><path d="m169.871 118.745-9.624 8.983c-1.483 1.384-3.904.333-3.904-1.696v3.836c0 2.029 2.421 3.081 3.904 1.696l13.688-12.776c-.582.041-1.17.062-1.763.062-.776 0-1.544-.036-2.301-.105z" fill="#e43d91"/><path d="m172.171 98.603c2.41 0 4.365-1.954 4.365-4.364v-12.749c0-2.411-1.954-4.365-4.365-4.365-2.41 0-4.365 1.954-4.365 4.365v12.749c.001 2.41 1.955 4.364 4.365 4.364z" fill="#e43d91"/><path d="m172.171 110.088c2.41 0 4.365-1.954 4.365-4.365 0-2.41-1.954-4.364-4.365-4.364-2.41 0-4.365 1.954-4.365 4.364.001 2.411 1.955 4.365 4.365 4.365z" fill="#e43d91"/><path d="m172.171 96.603c2.41 0 4.365-1.954 4.365-4.364v-12.749c0-2.411-1.954-4.365-4.365-4.365-2.41 0-4.365 1.954-4.365 4.365v12.749c.001 2.41 1.955 4.364 4.365 4.364z" fill="#fede3a"/><path d="m172.171 93.847c2.41 0 4.365-1.954 4.365-4.365v2.757c0 2.41-1.954 4.364-4.365 4.364s-4.365-1.954-4.365-4.364v-2.757c.001 2.41 1.955 4.365 4.365 4.365z" fill="#f7cb15"/><path d="m172.171 108.088c2.41 0 4.365-1.954 4.365-4.365 0-2.41-1.954-4.364-4.365-4.364-2.41 0-4.365 1.954-4.365 4.364.001 2.411 1.955 4.365 4.365 4.365z" fill="#fede3a"/><path d="m172.171 105.331c1.926 0 3.542-1.255 4.121-2.986.146.436.244.894.244 1.378 0 2.411-1.954 4.365-4.365 4.365s-4.365-1.954-4.365-4.365c0-.485.098-.943.243-1.378.581 1.731 2.197 2.986 4.122 2.986z" fill="#f7cb15"/></svg>