<svg id="Layer_1" height="512" viewBox="0 0 512 512" width="512" xmlns="http://www.w3.org/2000/svg" data-name="Layer 1"><g id="_Group_3" data-name=" Group 3"><path d="m419.17 446.62a40.009 40.009 0 0 1 -39.93 42.38h-246.48a40.009 40.009 0 0 1 -39.93-42.38l9.68-162.45c3.72-59.4 45.28-108.67 101.89-127.62a162.514 162.514 0 0 1 51.59-8.34h.02a162.414 162.414 0 0 1 51.53 8.32c56.64 18.93 98.23 68.22 101.95 127.64zm-106.17-134.62v-24h-27.29a45.73 45.73 0 0 0 -5.95-14h33.24v-24h-114v24h37.95c10.13 0 18.94 5 23.3 14h-61.25v24h61.25a26.89 26.89 0 0 1 -23.3 14h-25.5a12.262 12.262 0 0 0 -8.24 21.08l72.44 68.52 16.48-17.42-50.72-48.04c21.57-1.91 39.26-18.14 44.31-38.14z" fill="#00acea"/><path d="m358.98 24.98c10.73-2.31 19.36 8.33 14.13 17.43l-65.57 114.12a162.414 162.414 0 0 0 -51.53-8.32h-.02a162.514 162.514 0 0 0 -51.59 8.34l-66.52-115.82c-5.05-8.82 2.92-19.24 13.42-17.55l59.49 9.55a346.849 346.849 0 0 0 128.09-3.41z" fill="#00efd1"/><path d="m313 288v24h-27.28c-5.05 20-22.74 36.23-44.31 38.14l50.72 48.04-16.48 17.42-72.44-68.52a12.262 12.262 0 0 1 8.24-21.08h25.5a26.89 26.89 0 0 0 23.3-14h-61.25v-24h61.25c-4.36-9-13.17-14-23.3-14h-37.95v-24h114v24h-33.24a45.73 45.73 0 0 1 5.95 14z" fill="#00efd1"/><g fill="#083863"><path d="m415.479 283.8c-3.644-58.191-42.292-108.673-99.174-130.475l62.007-107.925a17.278 17.278 0 0 0 -1.052-19.021 19.164 19.164 0 0 0 -19.546-7.263l-20.1 4.34a339.529 339.529 0 0 1 -125.874 3.352l-59.488-9.551a18.915 18.915 0 0 0 -18.775 7.82 17.35 17.35 0 0 0 -.8 18.643l62.961 109.623c-56.848 21.82-95.474 72.294-99.117 130.471l-9.681 162.452a46.009 46.009 0 0 0 45.92 48.734h246.48a46.008 46.008 0 0 0 45.919-48.736zm-272.132-251.9a7.011 7.011 0 0 1 7-2.8l59.49 9.55a351.5 351.5 0 0 0 130.307-3.468l20.1-4.34a7.05 7.05 0 0 1 7.325 2.608 5.245 5.245 0 0 1 .339 5.967l-63.166 109.938a166.79 166.79 0 0 0 -22.4-5.1l8.869-43.359a6 6 0 1 0 -11.756-2.405l-9.068 44.329q-7.152-.6-14.394-.607-5.853 0-11.656.4l-19.387-63.713a6 6 0 1 0 -11.48 3.5l18.705 61.477a167.306 167.306 0 0 0 -24.977 5.5l-64.111-111.628a5.263 5.263 0 0 1 .26-5.849zm260.629 440.422a33.671 33.671 0 0 1 -24.736 10.678h-246.48a34.009 34.009 0 0 1 -33.941-36.023l9.681-162.432c3.481-55.573 41.872-103.581 97.8-122.3a157.8 157.8 0 0 1 99.329-.021l.044.015c55.949 18.714 94.346 66.72 97.826 122.292l9.679 162.449a33.7 33.7 0 0 1 -9.202 25.342z"/><path d="m313 244h-114a6 6 0 0 0 -6 6v24a6 6 0 0 0 6 6h37.95a21.443 21.443 0 0 1 9.308 2h-47.258a6 6 0 0 0 -6 6v24a6 6 0 0 0 6 6h46.6a20.04 20.04 0 0 1 -8.647 2h-25.5a18.26 18.26 0 0 0 -12.363 31.439l72.44 68.52a6 6 0 0 0 8.481-.236l16.48-17.42a6 6 0 0 0 -.232-8.48l-42.4-40.155a57.775 57.775 0 0 0 36.324-35.668h22.817a6 6 0 0 0 6-6v-24a6 6 0 0 0 -6-6h-22.8q-.342-1.014-.717-2h23.517a6 6 0 0 0 6-6v-24a6 6 0 0 0 -6-6zm-6 24h-27.24a6 6 0 0 0 -4.99 9.331 39.786 39.786 0 0 1 5.119 12.124 6 6 0 0 0 5.821 4.545h21.29v12h-21.28a6 6 0 0 0 -5.817 4.531c-4.59 18.175-20.636 32-39.022 33.632a6 6 0 0 0 -3.6 10.333l46.366 43.916-8.235 8.706-68.086-64.4a6.264 6.264 0 0 1 4.124-10.718h25.5a33.034 33.034 0 0 0 28.569-17.129 6 6 0 0 0 -5.269-8.871h-55.25v-12h55.25a6 6 0 0 0 5.4-8.616c-5.274-10.885-16-17.384-28.7-17.384h-31.95v-12h102z"/></g></g></svg>