<svg id="Layer_1" enable-background="new 0 0 256 256" height="512" viewBox="0 0 256 256" width="512" xmlns="http://www.w3.org/2000/svg"><circle cx="128" cy="128" fill="#382b73" r="120"/><circle cx="128" cy="128" fill="#473080" r="102.5"/><path d="m207.077 176.557-6.557-6.557c-2.45-2.45-5.909-3.25-9.029-2.42l-11.605-11.605c.001-.002.003-.003.004-.005 8.04-10.77 12.8-24.13 12.8-38.6 0-35.69-28.93-64.62-64.62-64.62s-64.62 28.93-64.62 64.62c0 25.257 14.505 47.116 35.634 57.741v24.768 4.554c0 3.018 2.446 5.465 5.464 5.465h26.362l14.336 14.336c1.148 1.148 3.11.335 3.11-1.288v-5.465-7.583h3.097c3.018 0 5.464-2.447 5.464-5.465v-4.554-24.69c3.438-1.718 6.708-3.722 9.763-5.999 0 0 .001 0 .001-.001l11.599 11.6c-.83 3.12-.03 6.58 2.42 9.03l8.993 8.993c.778.778 2.048.791 2.822.008 1.561-1.577 3.065-3.215 4.505-4.901 3.946-4.612 7.432-9.634 10.4-14.979.433-.778.286-1.754-.343-2.383z" fill="#382b73"/><path d="m167.434 144.968h18.682v28.211h-18.682z" fill="#1caee4" transform="matrix(.707 -.707 .707 .707 -60.706 171.583)"/><path d="m169.414 149.749h5.161v28.211h-5.161z" fill="#009add" transform="matrix(.707 -.707 .707 .707 -65.487 169.603)"/><path d="m207.077 169.557c.63.63.776 1.606.344 2.385-2.969 5.345-6.454 10.367-10.4 14.979-1.439 1.686-2.944 3.324-4.505 4.901-.774.782-2.044.77-2.823-.008l-8.993-8.993c-2.45-2.45-3.25-5.91-2.42-9.03.41-1.53 1.22-2.98 2.42-4.18l6.11-6.11.52-.53c1.19-1.18 2.64-1.98 4.16-2.39 3.12-.83 6.58-.03 9.03 2.42z" fill="#fede3a"/><path d="m186.81 176.71 10.21 10.21c-1.439 1.686-2.944 3.324-4.505 4.901-.774.782-2.044.77-2.823-.008l-8.993-8.993c-2.45-2.45-3.25-5.91-2.42-9.03.41-1.53 1.22-2.98 2.42-4.18l6.11-6.11c-2.21 2.21-3.08 5.24-2.62 8.1.301 1.87 1.171 3.66 2.621 5.11z" fill="#e7ad27"/><path d="m128.07 45.75c-35.69 0-64.62 28.93-64.62 64.62 0 35.68 28.93 64.61 64.62 64.61 14.48 0 27.84-4.76 38.61-12.79 1.39-1.04 2.73-2.13 4.03-3.27 3.4-2.99 6.48-6.32 9.18-9.95 8.04-10.77 12.8-24.13 12.8-38.6 0-35.69-28.93-64.62-64.62-64.62zm0 112.59c-26.5 0-47.98-21.48-47.98-47.97 0-26.5 21.48-47.98 47.98-47.98s47.98 21.48 47.98 47.98c0 26.49-21.48 47.97-47.98 47.97z" fill="#1caee4"/><path d="m128.07 55.09c-30.53 0-55.28 24.75-55.28 55.28s24.75 55.28 55.28 55.28c12.57 0 24.15-4.19 33.43-11.25.01 0 .01-.01.02-.01.88-.67 1.73-1.37 2.57-2.09 2.96-2.54 5.65-5.39 8.01-8.5 7.06-9.28 11.25-20.86 11.25-33.43 0-30.53-24.75-55.28-55.28-55.28zm0 103.25c-26.5 0-47.98-21.48-47.98-47.97 0-26.5 21.48-47.98 47.98-47.98s47.98 21.48 47.98 47.98c0 26.49-21.48 47.97-47.98 47.97z" fill="#009add"/><path d="m176.05 110.37c0 11.36-3.95 21.78-10.53 29.99-.04.05-.07.09-.11.14-.19.22-.37.45-.55.66-.04.05-.08.09-.12.14-.38.46-.77.9-1.17 1.34-2.46 2.71-5.23 5.13-8.25 7.21-.47.32-.94.64-1.42.94-.78.51-1.57.98-2.38 1.43-.45.25-.9.5-1.35.73-.94.49-1.9.95-2.88 1.38-.01.01-.03.01-.04.02-4.02 1.76-8.34 2.98-12.85 3.58-2.07.27-4.18.41-6.33.41-2.19 0-4.35-.15-6.47-.43-4.46-.6-8.72-1.82-12.71-3.56-.01-.01-.03-.01-.04-.02-1.01-.44-2-.91-2.97-1.43-.48-.24-.95-.5-1.41-.76-.79-.44-1.56-.91-2.32-1.4-.49-.31-.98-.63-1.46-.96-3.02-2.12-5.8-4.57-8.26-7.3-.39-.43-.77-.86-1.13-1.31-.03-.03-.06-.07-.08-.1-.2-.23-.4-.47-.58-.71-.03-.03-.05-.07-.08-.1-6.56-8.19-10.47-18.59-10.47-29.89 0-26.5 21.48-47.98 47.98-47.98s47.98 21.48 47.98 47.98z" fill="#136da0"/><path d="m119.423 104.796h17.204v17.204h-17.204z" fill="#e7ad27"/><path d="m113.947 94.408c.352 2.511-.974 4.772-2.961 5.05-1.987.279-3.883-1.531-4.235-4.042s.974-4.772 2.961-5.05 3.883 1.531 4.235 4.042z" fill="#f6ca14"/><path d="m142.103 94.408c-.352 2.511.974 4.772 2.961 5.05 1.987.279 3.883-1.531 4.235-4.042s-.974-4.772-2.961-5.05-3.883 1.531-4.235 4.042z" fill="#f6ca14"/><path d="m145.959 91.65c0 11.806-8.029 21.377-17.934 21.377s-17.934-9.571-17.934-21.377 8.029-18.889 17.934-18.889 17.934 7.083 17.934 18.889z" fill="#fddd3a"/><path d="m128.025 111.173c-9.643 0-17.505-9.073-17.914-20.447-.011.305-.02.612-.02.924 0 11.806 8.029 21.377 17.934 21.377s17.934-9.571 17.934-21.377c0-.312-.009-.619-.02-.924-.409 11.374-8.271 20.447-17.914 20.447z" fill="#f6ca14"/><path d="m145.911 93.138c-.599-10.151-7.352-16.479-15.924-17.314-.118.808-.182 1.633-.182 2.474 0 9.002 7.036 16.354 15.908 16.872.092-.668.158-1.345.198-2.032z" fill="#f6ca14"/><path d="m161.16 126.15c-.39-1.28-1.12-2.4-2.06-3.26-.09-.08-.19-.17-.28-.24-.05-.05-.11-.1-.17-.14-.05-.04-.1-.08-.16-.12 0 0 0-.01-.01-.01-.02-.02-.04-.03-.07-.05-.09-.07-.18-.13-.28-.19 0-.01-.01-.01-.01-.01-.02-.02-.05-.04-.08-.05-.01-.01-.02-.02-.04-.03-.04-.03-.09-.05-.13-.08-.03-.02-.06-.03-.09-.05-.01-.01-.03-.02-.04-.02-.02-.02-.05-.03-.07-.04-.01-.01-.03-.02-.04-.03-.01 0-.01-.01-.02-.01s-.02-.01-.03-.01c-.03-.02-.07-.04-.1-.05-.01-.01-.01-.01-.02-.01-.03-.02-.06-.03-.09-.05-.05-.02-.1-.05-.16-.07-.01-.01-.02-.02-.04-.02l-.01-.01c-.02 0-.03-.01-.05-.02-.06-.03-.13-.06-.21-.09-.02-.01-.05-.02-.08-.03-.12-.05-.25-.1-.38-.14l-.01-.01c-.02-.01-.05-.02-.08-.02-.01 0-.02-.01-.04-.01 0 0-.01-.01-.02-.01-.03-.01-.07-.02-.11-.03-.03-.01-.06-.02-.1-.03h-.01v-.01c-.02 0-.04 0-.05-.01h-.01c-.03-.01-.05-.01-.08-.02-.02 0-.03-.01-.05-.01-.03-.01-.06-.02-.08-.02-.02-.01-.04-.01-.06-.02-.02 0-.05-.01-.08-.01-.02-.01-.04-.01-.06-.02-.02 0-.05-.01-.08-.01-.02-.01-.03-.01-.05-.01-.03-.01-.06-.01-.09-.02-.02 0-.03 0-.05-.01-.03 0-.06-.01-.1-.01-.01 0-.02-.01-.04-.01-.04-.01-.09-.01-.13-.02h-.01l-.92-.12-10.14-1.34-1.53-.2h-.02s.01 0 0-.01l-5.81-.76-8.56-1.14h-.1l-8.55 1.14-5.81.76c-.01.01 0 .01 0 .01h-.02l-1.53.2-11.06 1.46c-.05.01-.09.01-.14.02-.01 0-.03.01-.04.01-.03 0-.07.01-.1.01-.02.01-.03.01-.05.01-.03.01-.06.01-.09.02-.02 0-.03 0-.05.01-.02 0-.04 0-.06.01-.02 0-.03 0-.04.01-.01 0-.02 0-.04.01-.03 0-.06.01-.08.01-.02.01-.04.01-.06.02-.02 0-.05.01-.08.02-.01 0-.01 0-.02.01h-.03c-.03.01-.05.01-.08.02-.02 0-.03.01-.05.01-.03.01-.06.02-.09.03-.01 0-.01 0-.01 0-.01 0-.02.01-.02.01s-.01 0-.02 0c-.03.01-.06.02-.09.03-.01.01-.03.01-.04.01s-.01.01-.02.01c-.02.01-.04.01-.05.02-.01 0-.02 0-.03.01-.01 0-.02 0-.02 0-.02.01-.04.01-.05.02-.03.01-.06.02-.09.03-.04.01-.07.02-.1.04l-.03.01c-.03.01-.07.02-.1.04-.14.05-.28.11-.41.17-.05.02-.09.05-.13.07-.02.01-.04.02-.06.03-.03.01-.05.02-.07.03-.03.01-.05.02-.08.04-.01.01-.02.02-.03.02l-.01.01h-.01c-.01 0-.03.01-.04.02 0 .01-.01.01-.01.01-.03.01-.06.03-.09.05-.04.02-.07.04-.1.06h-.01c-.02.01-.04.03-.06.04s-.05.03-.07.04-.03.02-.04.03c-.03.01-.06.03-.08.05 0 0-.01 0-.01.01-.1.06-.19.12-.28.19-.04.02-.07.05-.1.07-.02.02-.04.03-.06.05-.03.02-.05.04-.08.06-.06.04-.12.09-.17.14-.05.03-.09.07-.13.11-.05.04-.1.08-.15.13-.95.86-1.66 1.98-2.06 3.26l-4.33 14.11c.03.03.05.07.08.1.18.24.38.48.58.71.02.03.05.07.08.1.36.45.74.88 1.13 1.31 2.46 2.73 5.24 5.18 8.26 7.3.48.33.97.65 1.46.96.76.49 1.53.96 2.32 1.4.46.26.93.52 1.41.76.97.52 1.96.99 2.97 1.43.01.01.03.01.04.02 3.99 1.74 8.25 2.96 12.71 3.56 2.12.28 4.28.43 6.47.43 2.15 0 4.26-.14 6.33-.41 4.51-.6 8.83-1.82 12.85-3.58.01-.01.03-.01.04-.02.98-.43 1.94-.89 2.88-1.38.45-.23.9-.48 1.35-.73.81-.45 1.6-.92 2.38-1.43.48-.3.95-.62 1.42-.94 3.02-2.08 5.79-4.5 8.25-7.21.4-.44.79-.88 1.17-1.34.04-.05.08-.09.12-.14.18-.21.36-.44.55-.66.04-.05.07-.09.11-.14z" fill="#e6e7e8"/><path d="m161.16 126.15 4.36 14.21c-.04.05-.07.09-.11.14-.19.22-.37.45-.55.66l-3.7-12.05c-.48-1.55-1.44-2.87-2.71-3.79-.13-.09-.26-.18-.4-.27-.13-.09-.27-.17-.42-.24-.63-.35-1.32-.61-2.05-.75-.12-.03-.24-.05-.36-.06-.05-.01-.11-.02-.17-.03l-12.79-1.69-2.13-.28-.53-.07-1.02-.14-1.95-.25-5.2-.69-1.08-.14h-.01l-2.32-.31-2.32.31-1.08.14h-.01l-5.19.69-1.95.25-1.02.14-.53.07-2.13.28-12.79 1.69c-.06.01-.12.02-.17.03-.12.01-.24.03-.36.06-.04.01-.08.01-.11.02-.18.04-.36.08-.53.14-.04.01-.08.02-.12.04-.17.05-.34.11-.51.18-.57.22-1.11.52-1.6.88-1.27.92-2.23 2.24-2.71 3.79l-3.67 11.96c-.2-.23-.4-.47-.58-.71-.03-.03-.05-.07-.08-.1l4.33-14.11c.4-1.28 1.11-2.4 2.06-3.26.05-.05.1-.09.15-.13.04-.04.08-.08.13-.11.05-.05.11-.1.17-.14.03-.02.05-.04.08-.06.02-.02.04-.03.06-.05.03-.02.06-.05.1-.07.09-.07.18-.13.28-.19 0-.01.01-.01.01-.01.02-.02.05-.04.08-.05.01-.01.02-.02.04-.03s.05-.03.07-.04.04-.03.06-.04h.01c.03-.02.06-.04.1-.06.03-.02.06-.04.09-.05 0 0 .01 0 .01-.01.01-.01.03-.02.04-.02h.01l.01-.01c.01 0 .02-.01.03-.02.03-.02.05-.03.08-.04.02-.01.04-.02.07-.03l.06-.03c.04-.02.08-.05.13-.07.13-.06.27-.12.41-.17.03-.02.07-.03.1-.04l.03-.01c.03-.02.06-.03.1-.04.03-.01.06-.02.09-.03.01-.01.03-.01.05-.02h.02c.01-.01.02-.01.03-.01.01-.01.03-.01.05-.02.01 0 .01-.01.02-.01s.03 0 .04-.01c.03-.01.06-.02.09-.03h.02s.01-.01.02-.01h.01l.09-.03c.02 0 .03-.01.05-.01.03-.01.05-.01.08-.02h.03c.01-.01.01-.01.02-.01.03-.01.06-.02.08-.02.02-.01.04-.01.06-.02.02 0 .05-.01.08-.01.02-.01.03-.01.04-.01.01-.01.02-.01.04-.01.02-.01.04-.01.06-.01.02-.01.03-.01.05-.01.03-.01.06-.01.09-.02.02 0 .03 0 .05-.01.03 0 .07-.01.1-.01.01 0 .03-.01.04-.01.05-.01.09-.01.14-.02l11.06-1.46 1.53-.2h.02s-.01 0 0-.01l5.81-.76 8.55-1.14h.1l8.56 1.14 5.81.76c.01.01 0 .01 0 .01h.02l1.53.2 10.14 1.34.92.12h.01c.04.01.09.01.13.02.02 0 .03.01.04.01.04 0 .07.01.1.01.02.01.03.01.05.01.03.01.06.01.09.02.02 0 .03 0 .05.01.03 0 .06.01.08.01.02.01.04.01.06.02.03 0 .06.01.08.01.02.01.04.01.06.02.02 0 .05.01.08.02.02 0 .03.01.05.01.03.01.05.01.08.02h.01c.01.01.03.01.05.01v.01h.01c.04.01.07.02.1.03.04.01.08.02.11.03.01 0 .02.01.02.01.02 0 .03.01.04.01.03 0 .06.01.08.02l.01.01c.13.04.26.09.38.14.03.01.06.02.08.03.08.03.15.06.21.09.02.01.03.02.05.02l.01.01c.02 0 .03.01.04.02.06.02.11.05.16.07.03.02.06.03.09.05.01 0 .01 0 .02.01.03.01.07.03.1.05.01 0 .02.01.03.01s.01.01.02.01c.01.01.03.02.04.03.02.01.05.02.07.04.01 0 .03.01.04.02.03.02.06.03.09.05.04.03.09.05.13.08.02.01.03.02.04.03.03.01.06.03.08.05 0 0 .01 0 .01.01.1.06.19.12.28.19.03.02.05.03.07.05.01 0 .01.01.01.01.06.04.11.08.16.12.06.04.12.09.17.14.09.07.19.16.28.24.94.86 1.67 1.98 2.06 3.26z" fill="#fff"/><path d="m159.1 122.89-.65 2.43-3.19 11.85c-.9 3.35-1.36 6.81-1.36 10.28v3.34c-.78.51-1.57.98-2.38 1.43-.45.25-.9.5-1.35.73-.94.49-1.9.95-2.88 1.38-.01.01-.03.01-.04.02-4.02 1.76-8.34 2.98-12.85 3.58-2.07.27-4.18.41-6.33.41-2.19 0-4.35-.15-6.47-.43-4.46-.6-8.72-1.82-12.71-3.56-.01-.01-.03-.01-.04-.02-1.01-.44-2-.91-2.97-1.43-.48-.24-.95-.5-1.41-.76-.79-.44-1.56-.91-2.32-1.4v-3.29c0-3.47-.46-6.93-1.36-10.28l-3.19-11.85-.65-2.43c.05-.05.1-.09.15-.13.04-.04.08-.08.13-.11.05-.05.11-.1.17-.14.03-.02.05-.04.08-.06.02-.02.04-.03.06-.05.03-.02.06-.05.1-.07.09-.07.18-.13.28-.19 0-.01.01-.01.01-.01.02-.02.05-.04.08-.05.01-.01.02-.02.04-.03s.05-.03.07-.04.04-.03.06-.04h.01c.03-.02.06-.04.1-.06.03-.02.06-.04.09-.05 0 0 .01 0 .01-.01.01-.01.03-.02.04-.02h.01l.01-.01c.01 0 .02-.01.03-.02.03-.02.05-.03.08-.04.02-.01.04-.02.07-.03.02-.01.04-.02.06-.03.04-.02.08-.05.13-.07.13-.06.27-.12.41-.17.03-.02.07-.03.1-.04l.03-.01c.03-.02.06-.03.1-.04.03-.01.06-.02.09-.03.01-.01.03-.01.05-.02h.02c.01-.01.02-.01.03-.01.01-.01.03-.01.05-.02.01 0 .01-.01.02-.01s.03 0 .04-.01c.02-.01.04-.01.07-.01.01-.01.02-.02.04-.02 0 0 .01-.01.02-.01h.01c.04-.02.09-.03.14-.03.03-.02.07-.03.11-.03.01-.01.01-.01.02-.01.03-.01.06-.02.08-.02.02-.01.04-.01.06-.02.02 0 .05-.01.08-.01.02-.01.03-.01.04-.01.01-.01.02-.01.04-.01.02-.01.04-.01.06-.01.02-.01.03-.01.05-.01.03-.01.06-.01.09-.02.02 0 .03 0 .05-.01.03 0 .07-.01.1-.01.01 0 .03-.01.04-.01.05-.01.09-.01.14-.02l11.06-1.46 1.53-.2h.02l2.14-.28 1.72 2.73.98 1.55v.01l1.92 3.04 6.6 10.47c.25.39.65.58 1.05.58.41 0 .81-.19 1.06-.58l6.6-10.47 1.92-3.04v-.01l.98-1.55 1.72-2.73 2.14.28h.02l1.53.2v.01l10.14 1.33.92.12h.01c.04.01.09.01.13.02.02 0 .03.01.04.01.04 0 .07.01.1.01.02.01.03.01.05.01.03.01.06.01.09.02.02 0 .03 0 .05.01.03 0 .06.01.08.01.02.01.04.01.06.02.03 0 .06.01.08.01.02.01.04.01.06.02.02 0 .05.01.08.02.02 0 .03.01.05.01.03 0 .06.01.08.03.02 0 .05.01.06.01h.01c.04.01.07.02.1.03.04.01.08.02.11.03.01 0 .02.01.02.01.02 0 .03.01.04.01.03.01.06.02.09.03.13.04.26.09.38.14.03.01.06.02.08.03.08.03.15.06.21.09.02.01.03.02.05.02l.01.01c.02 0 .03.01.04.02.06.02.11.05.16.07.03.02.06.03.09.05.01 0 .01 0 .02.01.03.01.07.03.1.05.01 0 .02.01.03.01s.01.01.02.01c.01.01.03.02.04.03.02.01.05.02.07.04.01 0 .03.01.04.02.03.02.06.03.09.05.04.03.09.05.13.08.02.01.03.02.04.03.03.01.06.03.08.05 0 0 .01 0 .01.01.1.06.19.12.28.19.03.02.05.03.07.05.01 0 .01.01.01.01.06.04.11.08.16.12.06.04.12.09.17.14.09.07.19.16.28.24z" fill="#1caee4"/><path d="m140.305 119.055-11.226 17.807c-.244.387-.649.581-1.054.581s-.809-.194-1.054-.581l-11.226-17.807-3.683.486 14.261 22.621c.395.626 1.049.939 1.702.939.654 0 1.307-.313 1.702-.939l14.261-22.621z" fill="#009add"/><path d="m157.749 121.901c-.004-.002-.008-.005-.013-.007-.036-.02-.071-.04-.107-.059-.006-.003-.012-.006-.018-.01-.037-.02-.073-.039-.11-.058-.003-.002-.006-.003-.009-.005-.039-.02-.079-.04-.119-.06-.002-.001-.004-.002-.006-.003-.041-.02-.082-.04-.124-.059-.001 0-.002-.001-.002-.001-.042-.02-.084-.039-.126-.058-.001 0-.002-.001-.002-.001-.171-.076-.346-.146-.524-.21-.004-.001-.007-.003-.011-.004-.039-.014-.078-.027-.117-.04-.011-.004-.021-.007-.032-.01-.033-.011-.066-.022-.1-.032-.013-.004-.026-.008-.039-.012-.031-.01-.062-.019-.093-.028-.015-.004-.029-.008-.044-.013-.03-.009-.059-.017-.089-.025-.016-.004-.032-.009-.049-.013-.029-.008-.058-.015-.087-.023-.016-.004-.032-.008-.048-.012-.028-.007-.057-.014-.085-.02-.018-.004-.037-.009-.055-.013-.026-.006-.052-.012-.079-.017-.019-.004-.039-.008-.058-.012-.027-.006-.055-.011-.082-.016-.018-.003-.036-.007-.054-.01-.03-.006-.06-.011-.09-.016-.016-.003-.033-.006-.049-.009-.032-.005-.063-.01-.095-.015-.015-.002-.029-.005-.044-.007-.044-.007-.089-.013-.133-.018-.002 0-.004-.001-.007-.001l-.918-.121-13.828-1.826-1.726 2.738 16.473 2.175c1.254.16 2.416.635 3.398 1.349l.653-2.431c-.378-.347-.791-.655-1.233-.917-.003-.001-.005-.003-.008-.005-.036-.023-.073-.044-.111-.065z" fill="#27c1e6"/><path d="m159.1 122.89-.65 2.43-3.19 11.85c-.9 3.35-1.36 6.81-1.36 10.28v3.34c-.78.51-1.57.98-2.38 1.43-.45.25-.9.5-1.35.73v-5.5c0-3.47.45-6.93 1.36-10.28l3.69-13.17.79-2.8v-.01h.01c.02.01.03.01.05.02h.01c.04.01.07.02.1.03.04.01.08.02.11.03.01 0 .02.01.02.01.02 0 .03.01.04.01.03.01.06.02.09.03.13.04.26.09.38.14.03.01.06.02.08.03.08.03.15.06.21.09.02.01.03.02.05.02l.01.01c.02 0 .03.01.04.02.06.02.11.05.16.07.03.02.06.03.09.05.01 0 .01 0 .02.01.03.01.07.03.1.05.01 0 .02.01.03.01s.01.01.02.01c.01.01.03.02.04.03.02.01.05.02.07.04.01 0 .03.01.04.02.03.02.06.03.09.05.04.03.09.05.13.08.02.01.03.02.04.03.03.01.06.03.08.05 0 0 .01 0 .01.01.1.06.19.12.28.19.03.02.05.03.07.05.01 0 .01.01.01.01.06.04.11.08.16.12.06.04.12.09.17.14.09.07.19.16.28.24z" fill="#009add"/><path d="m117.471 121.793-1.726-2.738-14.746 1.947c-.047.006-.094.012-.14.019-.013.002-.025.004-.038.006-.034.005-.068.01-.101.016-.015.002-.03.005-.045.008-.031.005-.063.011-.094.017-.016.003-.033.006-.05.01-.029.006-.058.011-.086.017-.018.004-.037.008-.055.012-.027.006-.055.012-.082.018-.017.004-.035.008-.052.012-.029.007-.059.014-.088.021-.015.004-.03.008-.045.011-.03.008-.06.015-.09.023-.015.004-.03.008-.045.012-.031.008-.062.017-.093.026-.013.004-.026.007-.04.011-.033.009-.065.019-.097.029-.012.004-.023.007-.035.011-.035.011-.07.022-.104.034-.009.003-.018.006-.027.009-.042.014-.084.029-.126.044-.001 0-.001.001-.002.001-.312.111-.614.243-.906.393-.002.001-.003.002-.004.002-.039.02-.077.04-.116.061-.004.002-.008.005-.013.007-.038.021-.075.041-.112.062-.002.001-.005.003-.007.004-.039.022-.078.045-.117.067-.001.001-.002.001-.003.002-.443.262-.857.57-1.235.918l.653 2.431c.982-.714 2.144-1.189 3.398-1.349z" fill="#27c1e6"/><path d="m105.88 147.45v5.45c-.48-.24-.95-.5-1.41-.76-.79-.44-1.56-.91-2.32-1.4v-3.29c0-3.47-.46-6.93-1.36-10.28l-3.19-11.85-.65-2.43c.05-.05.1-.09.15-.13.04-.04.08-.08.13-.11.05-.05.11-.1.17-.14.03-.02.05-.04.08-.06.02-.02.04-.03.06-.05.03-.02.06-.05.1-.07.09-.07.18-.13.28-.19 0-.01.01-.01.01-.01.02-.02.05-.04.08-.05.01-.01.02-.02.04-.03s.05-.03.07-.04.04-.03.06-.04h.01c.03-.02.06-.04.1-.06.03-.02.06-.04.09-.05 0 0 .01 0 .01-.01.01-.01.03-.02.04-.02h.01l.01-.01c.01 0 .02-.01.03-.02.03-.02.05-.03.08-.04.02-.01.04-.02.07-.03l.06-.03c.04-.02.08-.05.13-.07.13-.06.27-.12.41-.17.03-.02.07-.03.1-.04l.03-.01c.03-.02.06-.03.1-.04.03-.01.06-.02.09-.03.01-.01.03-.01.05-.02h.02c.01-.01.02-.01.03-.01.01-.01.03-.01.05-.02.01 0 .01-.01.02-.01s.03 0 .04-.01c.02-.01.04-.01.07-.01.01-.01.02-.02.04-.02 0 0 .01-.01.02-.01h.01l.09-.03c.02 0 .03-.01.05-.01v.01l.79 2.8 3.69 13.17c.9 3.35 1.36 6.81 1.36 10.28z" fill="#009add"/><path d="m128.025 117.452-5.83 8.164c-.71.994-2.16 1.067-2.966.149l-5.642-6.425z" fill="#d0d2d3"/><path d="m128.025 117.452 5.83 8.164c.71.994 2.16 1.067 2.966.149l5.641-6.425z" fill="#d0d2d3"/><path d="m108.85 154.33h38.44c-.01.01-.03.01-.04.02-4.02 1.76-8.34 2.98-12.85 3.58-2.07.27-4.18.41-6.33.41-2.19 0-4.35-.15-6.47-.43-4.46-.6-8.72-1.82-12.71-3.56-.01-.01-.03-.01-.04-.02z" fill="#d0d2d3"/><path d="m108.85 154.33h38.44c-.01.01-.03.01-.04.02-4.02 1.76-8.34 2.98-12.85 3.58-2.07.27-4.18.41-6.33.41-2.19 0-4.35-.15-6.47-.43-4.46-.6-8.72-1.82-12.71-3.56-.01-.01-.03-.01-.04-.02z" fill="#009add"/><path d="m110.091 91.65c0 .971.059 1.926.165 2.863 1.674.448 3.432.692 5.247.692 11.23 0 20.333-9.103 20.333-20.333 0-.158-.008-.314-.012-.471-2.358-1.075-5.004-1.64-7.799-1.64-9.905 0-17.934 7.083-17.934 18.889z" fill="#f6ca14"/><path d="m110.111 90.704c2.143.983 4.525 1.535 7.038 1.535 9.338 0 16.907-7.57 16.907-16.907 0-.556-.029-1.104-.081-1.646-1.863-.607-3.864-.925-5.95-.925-9.637 0-17.495 6.706-17.914 17.943z" fill="#0099dc"/><path d="m128.025 75.727c2.086 0 4.088.318 5.95.925.005.055.007.111.012.166.043-.49.069-.985.069-1.486 0-.556-.029-1.104-.081-1.646-1.863-.607-3.864-.925-5.95-.925-9.637 0-17.495 6.707-17.914 17.943.092.042.188.079.281.12 1.532-9.512 8.841-15.097 17.633-15.097z" fill="#1cade3"/><path d="m129.987 72.858c-.118.807-.182 1.633-.182 2.474 0 9.081 7.16 16.487 16.142 16.888.004-.19.012-.378.012-.569 0-11.016-6.991-17.918-15.972-18.793z" fill="#1cade3"/><path d="m129.987 75.824c8.308.81 14.908 6.779 15.852 16.388.036.002.072.006.108.008.004-.19.012-.378.012-.569 0-11.016-6.991-17.917-15.972-18.792-.118.807-.182 1.633-.182 2.474 0 .501.025.995.068 1.485.029-.335.066-.666.114-.994z" fill="#23c1e6"/><path d="m134.574 123.983c.511.51 1.315.577 1.905.16l5.364-3.8c.718-.515.83-1.539.24-2.196l-3.561-3.968c-.42-.468-1.09-.62-1.671-.38l-8.825 3.653z" fill="#fff"/><path d="m121.476 123.983c-.511.51-1.315.577-1.905.16l-5.364-3.8c-.718-.515-.83-1.539-.24-2.196l3.562-3.968c.42-.468 1.09-.62 1.671-.38l8.825 3.653z" fill="#fff"/><path d="m129.889 102.255-1.395 1.395c-.259.259-.679.259-.938 0l-1.395-1.395c-.418-.418-.122-1.132.469-1.132h2.79c.591 0 .887.714.469 1.132z" fill="#f6ca14"/><path d="m151.452 151.784h-46.904c-3.018 0-5.465 2.447-5.465 5.465v40.185c0 3.018 2.446 5.465 5.465 5.465h26.362l14.336 14.336c1.147 1.148 3.109.335 3.109-1.288v-13.048h3.097c3.018 0 5.464-2.447 5.464-5.465v-40.185c.001-3.019-2.446-5.465-5.464-5.465z" fill="#e43d91"/><path d="m151.452 147.23h-46.904c-3.018 0-5.465 2.447-5.465 5.465v40.185c0 3.018 2.446 5.465 5.465 5.465h27.272l13.425 13.425c1.147 1.147 3.109.335 3.109-1.288v-12.137h3.097c3.018 0 5.464-2.447 5.464-5.465v-40.185c.002-3.018-2.445-5.465-5.463-5.465z" fill="#ef5a9d"/><path d="m130.347 186.317c.68.714 1.042 1.627 1.042 2.638 0 1.016-.373 1.928-1.078 2.636-.49.493-1.364 1.086-2.733 1.086-1.408 0-2.284-.612-2.77-1.125-.668-.703-1.021-1.601-1.021-2.597 0-.99.342-1.89.989-2.602.489-.538 1.372-1.179 2.802-1.179 1.101-.001 2.059.395 2.769 1.143zm4.69-27.291c-1.719-1.734-4.03-2.614-6.871-2.614-2.743 0-5.062.839-6.891 2.494-1.887 1.706-2.861 3.972-2.894 6.736-.007.584.22 1.146.63 1.562.411.415.971.649 1.554.649h2.331c1.193 0 2.164-.956 2.185-2.148.02-1.221.458-1.768.784-2.072.546-.509 1.298-.756 2.301-.756 1.237 0 1.754.401 2.035.704.482.518.717 1.289.717 2.356 0 .579-.067 1.083-.198 1.497-.135.423-.322.799-.571 1.152-.164.234-.674.857-2.241 2.399-1.518 1.493-2.503 2.812-3.012 4.034-.502 1.208-.763 2.686-.795 4.52-.01.586.215 1.151.626 1.569s.973.653 1.559.653h2.332c1.206 0 2.185-.978 2.185-2.185 0-1.699.469-2.919 1.507-3.793 1.997-1.835 3.34-3.444 4.105-4.919.8-1.542 1.205-3.215 1.205-4.969-.001-2.828-.87-5.14-2.583-6.869z" fill="#e43d91"/><path d="m130.347 184.132c.68.714 1.042 1.627 1.042 2.638 0 1.016-.373 1.928-1.078 2.636-.49.493-1.364 1.086-2.733 1.086-1.408 0-2.284-.612-2.77-1.125-.668-.703-1.021-1.601-1.021-2.597 0-.99.342-1.89.989-2.602.489-.538 1.372-1.179 2.802-1.179 1.101 0 2.059.395 2.769 1.143zm4.69-27.29c-1.719-1.734-4.03-2.614-6.871-2.614-2.743 0-5.062.839-6.891 2.494-1.887 1.706-2.861 3.972-2.894 6.736-.007.584.22 1.146.63 1.562.411.415.971.649 1.554.649h2.331c1.193 0 2.164-.956 2.185-2.148.02-1.221.458-1.768.784-2.072.546-.509 1.298-.756 2.301-.756 1.237 0 1.754.401 2.035.704.482.518.717 1.289.717 2.356 0 .579-.067 1.083-.198 1.497-.135.423-.322.799-.571 1.152-.164.234-.674.857-2.241 2.399-1.518 1.493-2.503 2.812-3.012 4.034-.502 1.208-.763 2.686-.795 4.52-.01.586.215 1.151.626 1.569s.973.653 1.559.653h2.332c1.206 0 2.185-.978 2.185-2.185 0-1.699.469-2.919 1.507-3.793 1.997-1.835 3.34-3.444 4.105-4.919.8-1.542 1.205-3.214 1.205-4.969-.001-2.829-.87-5.14-2.583-6.869z" fill="#fede3a"/><g fill="#e7ad27"><path d="m125.081 163.521c.02-1.221.458-1.768.784-2.072.546-.509 1.298-.756 2.301-.756 1.237 0 1.754.401 2.035.704.318.342.518.806.625 1.382.054-.306.092-.634.092-1.005 0-1.067-.235-1.839-.717-2.356-.282-.302-.798-.704-2.035-.704-1.003 0-1.755.247-2.301.756-.326.305-.764.851-.784 2.072-.02 1.192-.992 2.148-2.185 2.148h-2.331c-.583 0-1.143-.234-1.554-.649-.253-.256-.425-.57-.527-.908-.057.43-.098.868-.103 1.326-.007.584.22 1.146.63 1.562.411.415.971.649 1.554.649h2.331c1.193-.001 2.165-.957 2.185-2.149z"/><path d="m136.414 166.701c-.765 1.475-2.108 3.083-4.105 4.919-1.038.874-1.507 2.094-1.507 3.793 0 1.206-.978 2.185-2.185 2.185h-2.332c-.586 0-1.148-.235-1.559-.653-.271-.276-.452-.62-.548-.988-.042.443-.07.906-.079 1.399-.01.586.215 1.151.626 1.569s.973.653 1.559.653h2.332c1.206 0 2.185-.978 2.185-2.185 0-1.699.469-2.919 1.507-3.793 1.997-1.835 3.34-3.444 4.105-4.919.8-1.542 1.205-3.214 1.205-4.969 0-.382-.019-.753-.05-1.116-.112 1.439-.487 2.819-1.154 4.105z"/><path d="m130.311 187.426c-.49.493-1.364 1.086-2.733 1.086-1.408 0-2.284-.612-2.77-1.125-.438-.461-.726-1.012-.882-1.613-.082.32-.139.65-.139.996 0 .996.353 1.894 1.021 2.597.486.513 1.362 1.125 2.77 1.125 1.369 0 2.243-.593 2.733-1.086.705-.708 1.078-1.62 1.078-2.636 0-.347-.058-.676-.141-.996-.163.619-.47 1.183-.937 1.652z"/></g></svg>