<svg height="512pt" viewBox="0 0 512 512" width="512pt" xmlns="http://www.w3.org/2000/svg" xmlns:xlink="http://www.w3.org/1999/xlink"><linearGradient id="a" gradientUnits="userSpaceOnUse" x1="256.0001158242" x2="256.0001158242" y1=".0001003941" y2="511.4279712543"><stop offset="0" stop-color="#2af598"/><stop offset="1" stop-color="#009efd"/></linearGradient><path d="m164.046875 390.863281c13.476563-.730469 26.824219-2.234375 40.007813-4.519531v125.085938h-40.007813zm-164.046875 120.566407h40.011719v-120.035157h-40.011719zm82.023438-120.035157v120.035157h40.011718v-120.035157zm327.089843 120.035157h40.011719v-304.136719c-11.183594 21.394531-24.550781 41.476562-40.011719 60.066406zm-82.019531 0h40.007812v-201.59375c-12.648437 10.765624-26.003906 20.550781-40.007812 29.328124zm-82.023438-134.863282v134.863282h40.011719v-149.851563c-2.148437.960937-4.304687 1.910156-6.476562 2.828125-11.007813 4.65625-22.199219 8.703125-33.535157 12.160156zm182.761719-376.566406-84.878906 84.875 28.292969 28.292969 35.183594-35.183594c-14.796876 131.132813-126.367188 233.386719-261.390626 233.386719h-145.039062v40.011718h145.039062c80.957032 0 157.070313-31.527343 214.316407-88.773437 50.746093-50.746094 81.261719-116.328125 87.539062-186.960937l36.8125 36.8125 28.292969-28.292969zm0 0" fill="url(#a)"/></svg>