<svg height="512pt" viewBox="0 0 512 512" width="512pt" xmlns="http://www.w3.org/2000/svg"><path d="m439.945312 134.429688h-368.507812l-71.4375 52.914062v324.65625h511.386719v-324.65625zm0 0" fill="#fdbf00"/><path d="m439.945312 134.429688h-185.25v377.570312h256.691407v-324.65625zm0 0" fill="#ebb100"/><path d="m415.894531 511.386719h-356.382812v-511.386719h392.359375v475.40625c0 19.871094-16.105469 35.980469-35.976563 35.980469zm0 0" fill="#f2f2fc"/><path d="m255.691406 0v511.386719h160.203125c19.871094 0 35.980469-16.109375 35.980469-35.980469v-475.40625zm0 0" fill="#e2d9fb"/><g fill="#00d7df"><path d="m114.125 211.753906h76.101562v29.960938h-76.101562zm0 0"/><path d="m218.003906 211.753906h76.097656v29.960938h-76.097656zm0 0"/><path d="m114.125 261.695312h76.101562v29.964844h-76.101562zm0 0"/><path d="m218.003906 261.695312h76.097656v29.964844h-76.097656zm0 0"/></g><path d="m321.878906 211.753906h76.097656v29.960938h-76.097656zm0 0" fill="#0f9dce"/><path d="m255.691406 211.753906h38.410156v29.960938h-38.410156zm0 0" fill="#0f9dce"/><path d="m321.878906 261.695312h76.097656v29.964844h-76.097656zm0 0" fill="#0f9dce"/><path d="m255.691406 261.695312h38.410156v29.964844h-38.410156zm0 0" fill="#0f9dce"/><path d="m397.523438 171.796875h-283.660157v-117.863281h283.660157zm0 0" fill="#fa502e"/><path d="m255.691406 53.933594h141.832032v117.863281h-141.832032zm0 0" fill="#ea0016"/><path d="m256.050781 368.285156-256.050781-180.941406v324.65625h511.386719v-324.65625zm0 0" fill="#ffda2d"/><path d="m256.050781 368.285156-.359375 143.714844h255.695313v-324.65625zm0 0" fill="#fdbf00"/><path d="m511.386719 512h-511.386719l255.691406-210.351562zm0 0" fill="#fdbf00"/><path d="m511.386719 512h-255.695313v-210.351562zm0 0" fill="#ebb100"/></svg>