<svg id="Capa_1" enable-background="new 0 0 512 512" height="512" viewBox="0 0 512 512" width="512" xmlns="http://www.w3.org/2000/svg"><circle cx="256" cy="256" fill="#66e1d2" r="256"/><path d="m512 256c0 87.11-43.52 164.07-110 210.31-41.41 28.8-91.73 45.69-146 45.69s-104.59-16.89-146-45.69c-66.48-46.24-110-123.2-110-210.31 0-46.22 12.25-89.57 33.68-127 44.12 77.07 127.16 129 222.32 129s178.21-51.93 222.32-129c21.43 37.43 33.68 80.78 33.68 127z" fill="#00cec9"/><path d="m440.46 433.5c-46.57 48.39-112 78.5-184.46 78.5s-137.89-30.11-184.46-78.5z" fill="#374c81"/><path d="m440.46 433.5c-46.57 48.39-112 78.5-184.46 78.5v-78.5z" fill="#323b5a"/><path d="m471.439 206.153c0 6.864-5.565 12.429-12.429 12.429h-81.087c-.751 0-1.359.608-1.359 1.359v69.511h-24.858v-69.511c0-14.479 11.738-26.217 26.217-26.217h81.087c6.864 0 12.429 5.565 12.429 12.429z" fill="#fff"/><path d="m471.439 206.153c0 6.864-5.565 12.429-12.429 12.429h-81.087c-.751 0-1.359.608-1.359 1.359v69.511h-12.429v-69.511c0-7.615 6.173-13.788 13.788-13.788z" fill="#d1f6ff"/><path d="m120.261 225.401c0 7.076-2.875 13.49-7.515 18.13s-11.053 7.516-18.13 7.516h-17.351c-4.756 0-8.775-3.505-9.413-8.22l-2.378-17.425-2.56-18.776c-.497-3.629 2.328-6.869 5.999-6.869h25.703c14.161-.001 25.645 11.484 25.645 25.644z" fill="#374c81"/><path d="m120.261 225.401c0 7.076-2.875 13.49-7.515 18.13s-11.053 7.516-18.13 7.516h-17.351c-4.756 0-8.775-3.505-9.413-8.22l-2.378-17.425h54.787z" fill="#4e689b"/><path d="m176.673 132.316c0 5.949-4.822 10.772-10.772 10.772h-49.376c-3.115 0-5.899 2.237-6.297 5.328-.48 3.737 2.436 6.935 6.082 6.935 9.521 0 18.528 4.143 24.717 11.368 6.198 7.225 8.908 16.771 7.449 26.176l-8.054 51.928-10.648-1.649v-.008l-10.639-1.649 8.054-51.928c.497-3.223-.389-6.372-2.519-8.849-2.13-2.486-5.096-3.845-8.361-3.845-15.105 0-27.427-12.172-27.675-27.211-.249-15.478 12.752-28.139 28.23-28.139h49.037c5.949 0 10.772 4.822 10.772 10.771z" fill="#fff"/><path d="m110.241 150.114c.429 3.018 3.136 5.227 6.184 5.238 9.478.033 18.437 4.172 24.601 11.368 6.198 7.225 8.908 16.771 7.449 26.176l-8.054 51.928-10.648-1.649v-.008l8.062-51.92c.174-1.135.265-2.27.265-3.381 0-11.791-9.587-21.742-21.792-21.742-4.673 0-8.899-1.889-11.957-4.955-3.106-3.106-5.006-7.418-4.945-12.171.12-9.321 8.014-16.681 17.336-16.681h59.93c0 5.949-4.823 10.772-10.772 10.772h-49.592c-3.673-.001-6.604 3.249-6.067 7.025z" fill="#d1f6ff"/><ellipse cx="324.824" cy="372.557" fill="#323b5a" rx="60.943" ry="60.943" transform="matrix(.964 -.267 .267 .964 -87.657 100.217)"/><ellipse cx="324.824" cy="372.557" fill="#fff" rx="25.911" ry="25.911" transform="matrix(.987 -.162 .162 .987 -55.899 57.344)"/><path d="m132.48 372.56c0 33.65-27.28 60.94-60.94 60.94h-.01c-23.82-24.76-42.71-54.29-55.08-87.03 9.77-20.61 30.76-34.86 55.09-34.86 33.66 0 60.94 27.29 60.94 60.95z" fill="#323b5a"/><ellipse cx="71.54" cy="372.557" fill="#fff" rx="25.911" ry="25.911" transform="matrix(.99 -.143 .143 .99 -52.49 14.042)"/><path d="m99.422 278.125c-1.144 7.366-7.491 12.802-14.948 12.794h-.133c-18.171 0-34.967 5.941-48.531 15.992-2.751 2.03-4.168 5.137-4.168 8.261 0 2.61.986 5.237 3.008 7.259l39.318 39.393c6.859 6.872 16.169 10.734 25.879 10.734h62.429v-31.579c0-34.713-28.141-62.854-62.854-62.854z" fill="#e5233a"/><path d="m418.905 372.561-256.63-.003c-40.894-.001-72.092-36.574-65.644-76.957l2.79-17.475 11.957-77.052c.779-5.046 5.129-8.775 10.242-8.775h34.942c6.355 0 11.219 5.668 10.241 11.957l-6.488 41.82c-6.894 44.429 27.476 84.534 72.436 84.534h4.88c11.451 0 20.756-9.173 20.972-20.574v-.398c0-11.634-9.761-20.98-21.444-20.98-11.907 0-21.568-9.653-21.568-21.568v-8.941c0-14.035 11.378-25.413 25.413-25.413h38.074c38.613 0 73.571 15.652 98.869 40.958 25.306 25.295 40.958 60.254 40.958 98.867z" fill="#fe3345"/><path d="m258.604 309.637c0-11.634-9.761-20.98-21.444-20.98-11.907 0-21.568-9.653-21.568-21.568v-8.941c0-14.036 11.385-25.413 25.421-25.413h38.066c38.613 0 73.571 15.652 98.869 40.958 25.305 25.297 40.958 60.256 40.958 98.868h-160.302z" fill="#e5233a"/><g fill="#374c81"><path d="m357.815 307.238h-65.982c-4.783 0-8.66-3.877-8.66-8.66 0-4.783 3.877-8.66 8.66-8.66h65.982c4.783 0 8.66 3.877 8.66 8.66 0 4.782-3.877 8.66-8.66 8.66z"/><path d="m357.815 335.602h-65.982c-4.783 0-8.66-3.877-8.66-8.66 0-4.783 3.877-8.66 8.66-8.66h65.982c4.783 0 8.66 3.877 8.66 8.66 0 4.783-3.877 8.66-8.66 8.66z"/><path d="m364.135 261.536h-139.636c-16.141 0-29.225-13.084-29.225-29.225 0-8.07 3.273-15.379 8.559-20.665 5.286-5.287 12.595-8.56 20.665-8.56h81.186c21.635 0 40.527 11.75 50.636 29.225 4.973 8.593 7.815 18.578 7.815 29.225z"/></g><path d="m364.135 261.536h-139.636c-16.141 0-29.225-13.084-29.225-29.225h161.047c4.972 8.593 7.814 18.578 7.814 29.225z" fill="#323b5a"/><path d="m176.673 132.316c0 5.949-4.822 10.772-10.772 10.772h-39.408v-21.544h39.408c5.949.001 10.772 4.823 10.772 10.772z" fill="#374c81"/><path d="m176.673 132.316c0 5.949-4.822 10.772-10.772 10.772h-39.408v-10.772z" fill="#323b5a"/><path d="m141.465 296.644c0 8.269-6.704 14.973-14.973 14.973s-14.973-6.703-14.973-14.973 6.703-14.981 14.973-14.981 14.973 6.712 14.973 14.981z" fill="#ffe400"/><path d="m141.465 296.644c0 8.269-6.704 14.973-14.973 14.973v-29.954c8.27 0 14.973 6.712 14.973 14.981z" fill="#fed110"/><path d="m465.66 109.08v79.03c0 3.1-2.52 5.61-5.62 5.61h-96.94c-3.1 0-5.61-2.51-5.61-5.61v-96.94c0-3.1 2.51-5.61 5.61-5.61h83.91c6.66 7.46 12.9 15.31 18.65 23.52z" fill="#ff9d66"/><path d="m465.66 109.08v79.03c0 3.1-2.52 5.61-5.62 5.61h-48.47v-108.16h35.44c6.66 7.46 12.9 15.31 18.65 23.52z" fill="#f4863d"/><path d="m424.959 85.557v21.889c0 2.618-2.126 4.744-4.744 4.744h-17.285c-2.618 0-4.744-2.126-4.744-4.744v-21.889z" fill="#fdf0b2"/><path d="m424.959 85.557v21.889c0 2.618-2.126 4.744-4.744 4.744h-8.643v-26.633z" fill="#fede8c"/><path d="m450.347 182.014h-25.118c-1.962 0-3.552-1.59-3.552-3.552 0-1.962 1.59-3.552 3.552-3.552h25.118c1.962 0 3.552 1.59 3.552 3.552 0 1.961-1.59 3.552-3.552 3.552z" fill="#374c81"/><path d="m450.347 168.752h-25.118c-1.962 0-3.552-1.59-3.552-3.552 0-1.962 1.59-3.552 3.552-3.552h25.118c1.962 0 3.552 1.59 3.552 3.552 0 1.962-1.59 3.552-3.552 3.552z" fill="#374c81"/></svg>