<?xml version="1.0"?>
<svg xmlns="http://www.w3.org/2000/svg" xmlns:xlink="http://www.w3.org/1999/xlink" version="1.1" id="Capa_1" x="0px" y="0px" viewBox="0 0 512 512" style="enable-background:new 0 0 512 512;" xml:space="preserve" width="512px" height="512px" class=""><g><path style="fill:#FFFFFF" d="M256,0C114.615,0,0,114.615,0,256s114.615,256,256,256s256-114.615,256-256  C511.835,114.683,397.317,0.165,256,0z" data-original="#4CAF50" class="" data-old_color="#4CAF50"/><path style="fill:#4CAF50" d="M426.091,199.211C424.614,194.898,420.559,192,416,192H305.877l-39.979-99.968  c-2.78-5.473-9.471-7.656-14.943-4.875c-2.101,1.067-3.808,2.775-4.875,4.875L206.123,192H96  c-5.891-0.005-10.671,4.766-10.676,10.657c-0.003,3.299,1.521,6.414,4.127,8.436l90.389,70.4l-30.123,110.379  c-1.544,5.685,1.813,11.546,7.498,13.09c2.974,0.808,6.152,0.29,8.716-1.42L256,343.467l90.091,60.053  c4.901,3.269,11.524,1.947,14.793-2.954c1.71-2.564,2.228-5.742,1.42-8.716L332.16,281.387l90.389-70.4  C426.101,208.205,427.519,203.49,426.091,199.211z" data-original="#FAFAFA" class="active-path" data-old_color="#FAFAFA"/><path d="M256,512C114.615,512,0,397.385,0,256S114.615,0,256,0s256,114.615,256,256C511.847,397.322,397.322,511.847,256,512z   M256,21.333C126.397,21.333,21.333,126.397,21.333,256S126.397,490.667,256,490.667S490.667,385.603,490.667,256  C490.526,126.456,385.544,21.474,256,21.333z" data-original="#000000" class="" style="fill:#4CAF50" data-old_color="#000000"/><path d="M352,405.333c-2.103-0.002-4.159-0.625-5.909-1.792L256,343.467l-90.091,60.075c-4.898,3.273-11.522,1.956-14.795-2.942  c-1.719-2.573-2.237-5.765-1.418-8.749l30.144-110.464l-90.389-70.4c-4.595-3.686-5.333-10.399-1.647-14.995  c1.997-2.49,5.004-3.955,8.196-3.992h110.123l39.979-99.968c2.754-5.473,9.423-7.677,14.896-4.923  c2.127,1.07,3.852,2.796,4.923,4.923L305.877,192H416c5.891-0.005,10.671,4.766,10.676,10.657c0.003,3.299-1.521,6.414-4.127,8.436  l-90.389,70.4l30.123,110.464c1.496,5.698-1.91,11.53-7.607,13.026C353.802,405.213,352.903,405.33,352,405.333z M256,320  c2.103,0.002,4.159,0.625,5.909,1.792l72.299,48.192l-24.512-89.835c-1.133-4.151,0.34-8.576,3.733-11.221l71.488-55.595h-86.251  c-4.358-0.001-8.277-2.653-9.899-6.699L256,124.736l-32.768,81.899c-1.621,4.045-5.54,6.698-9.899,6.699h-86.251l71.467,55.573  c3.394,2.645,4.866,7.07,3.733,11.221l-24.512,89.856l72.299-48.192C251.825,320.621,253.889,319.997,256,320z" data-original="#000000" class="" style="fill:#4CAF50" data-old_color="#000000"/></g> </svg>
